<?xml version="1.0" standalone="no"?>
<!DOCTYPE svg PUBLIC "-//W3C//DTD SVG 20010904//EN"
 "http://www.w3.org/TR/2001/REC-SVG-20010904/DTD/svg10.dtd">
<svg version="1.0" xmlns="http://www.w3.org/2000/svg"
 width="270.000000pt" height="270.000000pt" viewBox="0 0 270.000000 270.000000"
 preserveAspectRatio="xMidYMid meet">
<metadata>
Created by potrace 1.11, written by Peter Selinger 2001-2013
</metadata>
<g transform="translate(0.000000,270.000000) scale(0.100000,-0.100000)"
fill="#000000" stroke="none">
<path d="M0 1350 l0 -1350 1350 0 1350 0 0 1350 0 1350 -1350 0 -1350 0 0
-1350z m1010 480 c0 -45 -2 -50 -23 -50 -12 0 -33 -7 -45 -16 -21 -15 -22 -21
-22 -175 0 -179 -9 -218 -59 -246 l-29 -17 30 -18 c49 -31 58 -68 58 -252 0
-159 1 -165 22 -180 12 -9 33 -16 45 -16 21 0 23 -5 23 -50 l0 -50 -65 0 c-81
0 -135 21 -161 63 -17 29 -19 49 -17 206 3 199 -1 213 -67 231 l-40 11 0 53 0
53 40 12 c68 20 73 37 65 214 -7 140 -6 157 12 198 27 60 65 78 161 79 l72 0
0 -50z m797 33 c26 -12 41 -29 56 -61 18 -42 19 -58 12 -203 l-7 -158 26 -26
c14 -14 39 -28 56 -31 29 -6 30 -8 30 -60 l0 -53 -40 -11 c-66 -18 -70 -32
-67 -231 2 -157 0 -177 -17 -206 -26 -42 -80 -63 -161 -63 l-65 0 0 50 c0 45
2 50 23 50 12 0 33 7 45 16 21 15 22 21 22 180 0 184 9 223 59 251 l29 17 -30
18 c-49 30 -58 68 -58 247 0 154 -1 160 -22 175 -12 9 -33 16 -45 16 -21 0
-23 5 -23 50 l0 50 71 0 c46 0 84 -6 106 -17z"/>
</g>
</svg>
